<?xml version="1.0" encoding="UTF-8"?>
<svg id="Layer_2" data-name="Layer 2" xmlns="http://www.w3.org/2000/svg" xmlns:xlink="http://www.w3.org/1999/xlink" viewBox="0 0 828.6 400.3">
  <defs>
    <style>
      .cls-1 {
        fill: url(#radial-gradient-6);
      }

      .cls-1, .cls-2, .cls-3, .cls-4, .cls-5, .cls-6, .cls-7, .cls-8, .cls-9 {
        stroke-width: 0px;
      }

      .cls-1, .cls-3 {
        fill-rule: evenodd;
      }

      .cls-2 {
        fill: url(#radial-gradient-8);
      }

      .cls-3 {
        fill: #fff;
      }

      .cls-4 {
        fill: url(#radial-gradient-2);
      }

      .cls-5 {
        fill: url(#radial-gradient-7);
      }

      .cls-6 {
        fill: url(#radial-gradient-5);
      }

      .cls-7 {
        fill: url(#radial-gradient);
      }

      .cls-8 {
        fill: url(#radial-gradient-3);
      }

      .cls-9 {
        fill: url(#radial-gradient-4);
      }
    </style>
    <radialGradient id="radial-gradient" cx="245.86" cy="286.48" fx="245.86" fy="286.48" r="556.6" gradientUnits="userSpaceOnUse">
      <stop offset="0" stop-color="#fff"/>
      <stop offset="1" stop-color="#ccc"/>
    </radialGradient>
    <radialGradient id="radial-gradient-2" cx="245.86" fx="245.86" r="556.6" xlink:href="#radial-gradient"/>
    <radialGradient id="radial-gradient-3" cx="245.86" cy="286.48" fx="245.86" fy="286.48" r="556.6" xlink:href="#radial-gradient"/>
    <radialGradient id="radial-gradient-4" cx="245.86" cy="286.48" fx="245.86" fy="286.48" r="556.6" xlink:href="#radial-gradient"/>
    <radialGradient id="radial-gradient-5" cx="245.86" fx="245.86" r="556.6" xlink:href="#radial-gradient"/>
    <radialGradient id="radial-gradient-6" cx="260.88" cy="112.77" fx="260.88" fy="112.77" r="298.93" xlink:href="#radial-gradient"/>
    <radialGradient id="radial-gradient-7" cx="257.16" cy="253.64" fx="257.16" fy="253.64" r="102.95" xlink:href="#radial-gradient"/>
    <radialGradient id="radial-gradient-8" cx="286.24" cy="144.66" fx="286.24" fy="144.66" r="52.11" xlink:href="#radial-gradient"/>
  </defs>
  <g id="_图层_1" data-name="图层 1">
    <g>
      <g>
        <path class="cls-7" d="m231.31,350.34v-9.67c4.21,1.07,8.32,1.9,12.35,2.49,4.03.58,8.06.87,12.09.87,8.95,0,15.64-1.48,20.07-4.43,4.43-2.95,6.65-7.47,6.65-13.55,0-7.88-6.27-15.18-18.81-21.9-.62-.35-1.11-.62-1.48-.8l-7.51-4.16c-9.76-5.29-16.56-10.33-20.42-15.12-3.84-4.79-5.77-10.41-5.77-16.85,0-11.1,3.98-19.73,11.95-25.92,7.97-6.18,19.21-9.26,33.71-9.26,3.13,0,6.6.17,10.41.53,3.8.37,8.22.9,13.23,1.62v9.93c-7.7-.89-12.97-1.47-15.78-1.74-2.82-.27-4.86-.41-6.11-.41-7.7,0-13.59,1.35-17.66,4.04-4.07,2.69-6.12,6.54-6.12,11.55,0,6.27,5.56,12.58,16.66,18.94.72.44,1.25.75,1.61.93l11.81,7.12c10.57,6.18,17.5,11.57,20.82,16.18,3.32,4.61,4.97,10.31,4.97,17.12,0,11.28-4.16,20.06-12.49,26.32-8.33,6.27-20.1,9.4-35.32,9.4-4.21,0-8.68-.27-13.43-.81-4.75-.54-9.89-1.34-15.44-2.42Z"/>
        <path class="cls-4" d="m401.29,352.49v47.81h-26.19v-165.59h40.96c19.78,0,35.65,5.56,47.6,16.65,11.96,11.1,17.93,25.65,17.93,43.65s-5.75,31.74-17.26,42.57c-11.5,10.82-26.66,16.25-45.46,16.25-2.86,0-7.11-.27-12.75-.8-2.25-.27-3.85-.46-4.84-.54Zm0-10.21c4.3.54,7.65.9,10.07,1.08,2.42.18,4.47.27,6.17.27,12.54,0,21.88-3.58,28.07-10.74,6.18-7.17,9.27-18.04,9.27-32.63,0-18.99-3.36-32.95-10.08-41.91-6.71-8.95-17.28-13.42-31.7-13.42h-11.81v97.36Z"/>
        <path class="cls-8" d="m534.64,352.49h-26.18v-117.77h47.27c14.68,0,25.83,2.77,33.44,8.33,7.61,5.55,11.42,13.61,11.42,24.17,0,7.7-2.29,14.01-6.86,18.94-4.56,4.93-10.88,7.88-18.93,8.87l30.48,57.47h-31.28l-28.07-58.82c9.49-.17,16.45-2.15,20.88-5.91,4.43-3.77,6.65-9.67,6.65-17.72,0-8.77-2.17-15.24-6.51-19.4-4.34-4.16-11.08-6.24-20.21-6.24h-12.08v108.1Z"/>
        <path class="cls-9" d="m631.33,255.94c0-8.78,1.41-14.5,4.23-17.19,2.82-2.69,8.75-4.03,17.79-4.03h56.14v10.21h-40.16c-4.74,0-7.9.67-9.47,2.01-1.56,1.34-2.34,3.81-2.34,7.38v29.68h42.57v11.55h-42.57v37.48c0,3.58.81,6.02,2.42,7.32,1.61,1.29,5.37,1.94,11.28,1.94h39.62v10.21h-61.65c-6.62,0-11.26-1.38-13.89-4.17-2.65-2.77-3.96-8.46-3.96-17.05v-75.34Z"/>
        <path class="cls-6" d="m768.3,351.95l-46.46-117.24h27.53l32.77,82.59,34.38-82.59h12.08l-67.95,165.59h-12.89l20.55-48.35Z"/>
      </g>
      <path class="cls-1" d="m190.66,255.57c1.35-.57,2.73-1.37,4.1-2.24.01-5.21.3-10.17.73-15-.08.1-.16.21-.23.3-2.81,3.75-6.66,10.85-4.6,16.94ZM468.63,105.61c9.95-3.3,25.18-21.07,26.34-31.29-10.64,13.6-28.11,21.8-45.78,27.48,5.98-4.01,14.58-10.37,18.67-15.35-.54-.93-1.22-1.19-2.71-1.63,2.13-.23,4.19-.43,5.56-.55,4.14-4.67,20.61-23.72,22.49-41.46-11.48,17.87-25.85,34.09-44.02,44.37,3-2.54,28.32-25.74,26.61-33.66,5.79-4.59,12.59-18.93,11.3-26.26-15.89,24.67-38.02,41.31-54.94,52.14-13.23,1.5-48.05,23.34-59.7,29.12-7.85,3.9-16.29,7.67-25.05,10.51-12.73,4.11-45.56,15.3-58.38,11.05-1.43-2.31-8.18-7.39-10.36-9.58-.32,1.29-.1,2.26-.47,3.1-2.21-.71-4.35-1.06-6.19-2.15-1.77-1.05-2.97-3.15-4.85-3.24-.84.94.93,1.58.55,2.96-3.03-1.18-6.2.1-8.89-.26-6.1-.83-11.77,2.58-17.77,3.5-8.17,1.27-18.29,1.63-26.39-.27-7.2-1.68-14.04-4.3-21-6.2-10.65-2.89-19.6-7.5-29.9-10.93-11.3-3.77-28.14-10.75-43.66-19.63-19.73-11.3-37.94-23.32-46.84-24.5C56.1,55.06,26.34,30.9,10.44,0c.97,9.58,9.89,41.57,21.61,45.68,2.58,7.21,7.21,12.98,12.39,17.34C28.36,51.21,13.15,37.31,2.97,19.93c3.69,16.56,17.85,37.75,25.31,45.1,2.05.93,4.02,1.54,6.46,2.3-1.98-.13-3.7.57-4.9,1.07,4.86,5.62,10.18,10.88,16.21,15.89C29.05,78.67,11.74,66.4,0,53.06c9.57,22.57,27.26,37.02,46.32,50.09-15.1-.96-28.27-3.87-38.51-9.7,5.87,9.97,26.77,23.44,34.2,21.28-.9.92-2.27,1.87-3.59,2.19,4.43,2.94,10.24,4.54,15.98,6.16-9.46,2.24-19.32,4.27-31.51,3.5,6.05,6.7,27.95,12.52,37.95,11.23-6.98,2.76-18.01,5.67-26.37,6.82,9.85,4.34,23.94,6.26,35.44,6.42-4.99,3.36-10.71,5.38-17.12,7.31,7.8,3.22,17.79,4.42,28.03,4.37-3.3,2.04-17.75,8.38-21.84,8.56,9.04,4.21,32.92,2.86,38.96,1.2-4.05,3.48-9.35,5.78-14.44,8.22,6.44,2.06,22.41-.64,26.49-1.69-3.99,4.36-9.03,8.38-14.37,11.38,11.86-.74,23.34-2.55,33.4-5.92-1.86,1.94-13.28,10.78-16.16,12.66,5.9,1.54,23.9-2.66,31.07-6.44-3.27,5.05-8.64,10.46-14.37,13.98,7.83-.64,21.1-4.19,26.6-8.03-3.25,4.09-9.83,12.35-15.56,16.65,9.7-2.6,19.15-6.89,26.13-11.31-2.06,5.4-6.47,10.08-12.12,15.35,10.18-2.12,18.71-8.93,25.16-13.44-2.04,4.59-6.15,10.53-10.09,14.79,7.72-3.21,15.92-8.8,20.26-12.79-1.47,4.73-4.3,8.29-7.07,11.72,6.11-2.25,12.12-5.94,14.61-8.22-.25,1.06-1.27,6.5-3.02,9.29,1.72-.69,3.35-1.58,4.9-2.58,2.91-10.74,7.2-20.25,12.91-28.51,11.66-16.87,26.58-25.32,44.75-25.32s33.21,8.45,44.83,25.32c5.36,7.78,9.42,16.72,12.3,26.69,1.02.52,2.05,1,3.1,1.44-2.04-2.77-3.22-5.52-3.5-7.82,3.16,3.45,7.63,6.55,13.47,9.43-2.23-3.48-4.27-6.45-5.12-9.43,2.35,2.72,10.89,8.57,15.35,9.16-3.06-3.23-6.6-9.74-8.62-14,3.49,3.46,16.19,10.1,22.08,9.15-2.81-2.34-5.95-5.36-7.27-8.08,2.62,1.73,17.29,7.72,21.27,5.93-4.6-2.5-13.67-11.46-16.1-15.31,7.46,5.12,16.96,10.33,28.5,10.47-5.55-3.69-10.2-7.75-14.27-12.66,8.46,2.94,18.2,5.83,28.7,6.73-7.18-4.34-12.27-8.13-16.85-12.92,7.66,4.1,19.97,4.98,30.7,5.11-5.51-3.54-10.82-7.7-14-11.85,7.05,2.52,18.86,5.24,26.65,4.56-5.46-2.85-12.6-7.26-17.5-11.29,10.77,3,24.52,4.78,37.43,3.77-7-2.96-13.41-6.52-19.12-10.78,8.25.38,18.92.44,24.51-2.42-6.27-.92-13.85-4.82-17.52-7.2,1.65-.19,3.31-.1,4.88-.43.12-.62-.3-1.44-.35-1.78,7.34,4.47,26.44,2.43,31.03-1.36-9.13.17-19.95-2.33-26.66-6.46,6.67-.58,10.57-.76,15.85-1.96.12-.9-.15-1.64-.36-2.27,4.3,3.84,20.42-1.67,24.09-6.01-7.8,2.07-23.75-.36-34.47-2.15,7.16-1.53,15.35-4.08,21.35-6.96.02-.76-.24-1.84-.61-2.74,10.45,5.38,26.4-10.19,26.93-15.62-10.31,4.44-24.96,7.31-36.94,8.31,7.32-2.93,13.51-6.16,17.87-11.23Zm-274.82,162.71c.56-.11,1.05-.3,1.59-.44-.11-1.32-.27-2.61-.35-3.96-.43,1.45-.85,2.92-1.24,4.4Z"/>
      <path class="cls-5" d="m257.01,357.81c-13.9,0-26.95-2.5-39.17-7.51-12.21-5.01-23.19-12.39-32.92-22.12-9.63-9.63-16.95-20.8-21.97-33.51-5.01-12.71-7.52-26.37-7.52-40.96s2.53-28.54,7.6-41.24c5.06-12.72,12.45-23.83,22.19-33.36,9.72-9.54,20.75-16.85,33.06-21.97,12.31-5.11,25.22-7.67,38.72-7.67,10.82,0,21.35,1.68,31.58,5.06,10.22,3.37,19.81,8.29,28.74,14.73,13.4,9.74,23.68,21.88,30.83,36.42,7.14,14.55,10.72,30.56,10.72,48.03,0,14.7-2.55,28.38-7.67,41.03-5.12,12.66-12.54,23.81-22.27,33.44-9.83,9.74-20.85,17.11-33.06,22.12-12.21,5.01-25.17,7.51-38.88,7.51Zm62.26-104.1c0-27.2-5.81-49.24-17.42-66.12-11.62-16.87-26.56-25.32-44.83-25.32s-33.09,8.45-44.75,25.32c-11.67,16.88-17.5,38.92-17.5,66.12s5.83,49.11,17.5,65.98c11.66,16.88,26.58,25.32,44.75,25.32s33.09-8.41,44.76-25.24c11.67-16.82,17.5-38.84,17.5-66.05Z"/>
      <g>
        <path class="cls-3" d="m337.94,161.11l-.1-1.29c-.39-4.63-3.17-7.7-7.17-8.11l.3-1.94c1.47-9.29-5.14-14.28-10.97-18.68-2.79-2.11-5.43-4.11-7.1-6.37-4.28-6.45-11.43-12.44-17.17-17.25l-3.73-3.14.5,4.59c.05.46.02,1.08-.06,1.65-5.88-1.44-11.84-4.51-14.55-6.92l-2.97,2.05c.14.35.31.7.49,1.06-2.82-1.16-5.26-1.37-7.27-1.37-1.63,0-3.26.15-5.06.33-1.65.17-3.26.32-4.96.32l-.94,3.58c.75.31,1.69.91,2.61,1.52.13.09.27.18.4.27-1.7.45-3.51.81-5.29,1.17-2.54.51-5.17,1.03-7.57,1.82l-2.44.79,1.52,2.07c.63.86,1.28,1.43,1.9,1.88-6.42,2.5-10.71,5.79-13.4,10.2l-2.01,3.3,3.83-.49c.39-.04.8-.07,1.19-.07,1,0,2,.15,2.93.42-3.14,2.19-5.34,4.86-7.37,8.82l-2.07,4.03,4.3-1.42c1.28-.42,2.88-.67,4.32-.67.91,0,1.71.1,2.34.29-2.14,2.62-4.48,5.7-4.97,8.32l-.96,5.23,4.01-3.48c.85-.73,3.01-1.24,5.26-1.24.43,0,.84.02,1.22.05-.97.83-1.79,1.8-2.84,3.29l-2.22,3.18,3.87-.27c.8-.06,1.69-.13,2.66-.22,2.34-.2,5-.42,7.32-.42.7,0,1.3.03,1.81.06-.33.39-.66.78-1,1.17-1.26,1.46-2.56,2.99-3.48,5l-1.63,3.56,3.79-.99c2.11-.56,4.06-.88,6.01-1.01-.62.85-1.16,1.93-1.45,3.43l-.67,3.52,3.26-1.48c2.19-.99,4.95-1.56,7.97-1.65l1.23-.04.44-1.15c1.82-4.67,8.2-5.18,13.84-5.64,1.24-.1,2.42-.19,3.49-.33l.18-2.43c3.46.58,6.6,1.38,8.9,2.16l.75-1.64c3.1,1.64,5.99,3.74,8.75,5.91l2.79,2.21.07-1.09c4.75,2.94,9.18,8.18,8.33,13.47-.41.15-.84.28-1.34.4l-4.89,1.17,4.48,2.29c3.4,1.74,6.78,2.63,10.02,2.63,6.62,0,12.18-3.71,14.52-9.69,2.28-5.82.77-12.18-3.95-16.73Z"/>
        <path class="cls-2" d="m339.73,160.29l-.05-.61c-.43-5.32-3.46-8.34-6.91-9.41l.03-.19c1.64-10.4-5.75-15.98-11.69-20.46-2.66-2-5.18-3.9-6.74-5.99-4.43-6.64-11.63-12.69-17.42-17.55l-.22-.18-7.09-5.95.89,8.18c-4.75-1.52-9.28-3.96-11.42-5.86l-3.65,2.54c-2.29-.85-4.69-1.25-7.32-1.25-1.75,0-3.44.17-5.08.33-1.6.15-3.26.32-4.9.32h-.25l-1.22,6.13c-.7.15-1.42.29-2.14.44-2.6.52-5.29,1.06-7.79,1.88l-4.87,1.59,3.03,4.13c.04.05.08.1.11.15-4.27,1.98-8.74,5-11.7,9.87l-4.01,6.59,6.88-.88c-1.66,1.77-3.07,3.84-4.37,6.39l-4.14,8.05,8.61-2.83c.6-.19,1.49-.4,2.48-.51-1.61,2.21-2.8,4.3-3.18,6.34l-1.86,9.91,7.94-6.41c.12-.1.44-.25.93-.4,0,0-.01.02-.02.02l-4.44,6.36,7.74-.53c.83-.06,1.75-.14,2.74-.21,1.58-.14,3.3-.29,4.95-.37-.8,1.03-1.58,2.18-2.2,3.55l-3.25,7.13,7.57-1.99c.84-.22,1.65-.4,2.45-.55-.08.26-.13.54-.19.82l-1.34,7.03,6.53-2.94c1.97-.9,4.49-1.41,7.26-1.5l2.46-.06.89-2.3c1.29-3.32,6.1-3.96,12.26-4.45,1.28-.11,2.49-.2,3.57-.34l.17-2.35c3.13.54,5.97,1.27,8.05,2l.74-1.62c2.9,1.56,5.62,3.54,8.22,5.59l5.59,4.4.08-1.27c2.78,2.4,4.83,5.55,4.87,8.59l-9.76,2.33,8.96,4.59c3.67,1.88,7.32,2.83,10.87,2.83,7.29,0,13.68-4.26,16.26-10.86,2.48-6.33.98-13.22-3.89-18.24Zm-60.1-3c-4.02,0-7.94.49-11.2,1.78,2.65-.13,5.03-.24,7.34-.24,4.28,0,8.31.38,13.32,1.78-6.04.77-16.12.2-18.82,7.13-3.21.09-6.23.7-8.69,1.81.57-2.94,2.22-3.65,3.76-5.6-.78-.05-1.55-.08-2.33-.08-2.59,0-5.23.32-8.28,1.12,1.48-3.25,4.24-5.2,5.94-8.22-1.16-.48-2.94-.65-4.95-.65-3.36,0-7.35.46-10.11.65,1.81-2.6,2.77-3.35,5.61-4.93-1.04-.88-3.23-1.33-5.52-1.33-2.52,0-5.16.55-6.47,1.69.5-2.69,3.81-6.53,5.93-9.12-1.09-1.23-3.07-1.68-5.13-1.68-1.76,0-3.57.33-4.91.77,2.38-4.63,4.95-7.38,9.54-9.8-1.77-1.38-4.29-2.15-6.76-2.15-.48,0-.95.03-1.41.09,3.28-5.39,8.94-8.4,15.51-10.5-1.59-1.77-2.86-1.96-4.1-3.65,5.5-1.81,12.41-2.19,17.34-4.57-.04,0-.07,0-.11,0-2.09,0-4.93-2.76-7.26-3.7h.27c1.79,0,3.48-.17,5.13-.33,1.65-.16,3.25-.33,4.86-.33,3.63,0,7.33.83,11.72,4.35.21-1.59-2.4-4.46-3.2-6.56,3.32,2.93,10.63,6.49,17.15,7.74.42-.96.67-2.87.54-4.06,5.71,4.8,12.82,10.72,17,17.03,5.67,7.68,19.73,11.47,17.8,23.73-.46-.22-2.53.3-3.06.97-1.24.42-2.41,1.03-3.46,1.82-6.14-.14-6.8-9.62-12.64-13.29-3.27-2.05-5.74-1.48-9.59-2.74.62,2.59,3.67,2.73,6.39,3.19-4.31,7.2-1.52,14.18,5.01,14.18,1.86,0,4.02-.57,6.4-1.85.92.66,2.01,1.15,3.14,1.59-.5.5-1.02,1-1.42,1.57-.81-.04-1.91-.31-2.88-.54-1.56-.39-3.11-.76-4.68-.76-1.99,0-3.65.62-4.93,1.83l-3.85,3.64,4.74,2.38c.13.07.3.17.45.26.24.98.38,2.03.31,3.27-5.36-4.23-12.87-9.6-22.05-9.6-.25,0-.51,0-.77.02,5.57,1.57,9.01,2.86,12.77,5.01-4.17-1.44-11.91-3.14-19.38-3.14Zm33.85-7.61c-.6.15-1.17.23-1.7.23-1.35,0-2.31-.49-2.85-1.45-.62-1.1-.82-3.01.17-5.43,1.23,1.21,2.21,2.93,3.25,4.74.35.63.72,1.27,1.12,1.92Zm-.79,16.91l.08-1.37c0-.08-.01-.13,0-.19,3.88,3.7,8.43,9.24,8.06,12.35,0,.07-.06.12-.07.18-.88-4.44-4.33-8.4-8.06-10.97Zm14.67,19.09c-2.78,0-5.87-.73-9.18-2.42,16.56-3.95-3.91-22.94-8.22-25.09.63-.6,1.45-.82,2.37-.82,1.15,0,2.46.33,3.8.66,1.34.33,2.7.65,3.95.65.8,0,1.54-.14,2.21-.49,1.41-2.89,4.56-4.67,7.48-4.67s5.84,1.92,6.2,6.49c-3.24,1.16-7.63,1.2-8.21,5.02.15.03.29.04.44.04,1.05,0,1.95-.73,3.01-1.46,1.06-.73,2.28-1.46,3.94-1.46.4,0,.82.05,1.28.14,9.51,8.8,3.35,23.42-9.08,23.42Z"/>
      </g>
    </g>
  </g>
</svg>